<svg width="132" height="132" viewBox="0 0 132 132" fill="none" xmlns="http://www.w3.org/2000/svg">
<circle cx="66" cy="66" r="66" fill="#00049D"/>
<path d="M62.1207 27.2709C59.9942 27.5582 56.6034 28.9088 54.5057 30.2306C50.5689 32.7594 47.3218 36.8111 45.6839 41.2651C44.8218 43.6502 44.7643 43.9663 44.7643 48.0755C44.7356 52.0984 44.7931 52.5582 45.5689 54.8283C46.6609 57.9893 47.8678 60.0007 50.2241 62.5582C54.5919 67.2709 59.1322 69.3111 65.4827 69.4548C72.8103 69.6272 79.3046 66.1789 83.5862 59.8571C86.0287 56.2364 86.9483 53.018 86.9483 48.0755C86.9195 45.6617 86.7184 43.8801 86.2299 42.1847C84.6494 36.6962 80.1092 31.495 74.6207 28.9375C70.8563 27.1559 66.6034 26.6099 62.1207 27.2709Z" fill="white"/>
<path d="M43.7874 66.926C40.2529 67.8168 37.2931 70.3456 35.0517 74.3686C33.5575 77.0697 31.977 81.6961 31.3736 85.1732L31 87.2421L33.0402 89.6272C34.1322 90.949 35.7414 92.7019 36.5747 93.5065C38.1552 95.0007 42.1494 98.2191 42.408 98.2191C42.4943 98.2191 43.2988 98.6789 44.2184 99.2824C47.6379 101.466 53.8161 103.851 57.3218 104.369C58.0977 104.484 58.9885 104.627 59.3046 104.685C66.7759 106.121 76.8621 104.656 83.9598 101.093C87.3218 99.3973 90.1667 97.6732 91.1437 96.7536C91.3736 96.5237 92.0632 96.0352 92.6379 95.6329C93.8448 94.8283 97.8965 90.7479 98.7586 89.4835C99.0747 89.0237 99.6207 88.3053 99.9942 87.8456L100.655 87.041L99.908 83.7076C97.6954 73.8801 93.4138 68.1617 87.1782 66.7249L85.6552 66.3801L83.7299 68.1042C77.5805 73.6789 70.0517 75.949 61.7471 74.7421C56.3448 73.9663 51.431 71.5525 47.1782 67.587L45.8851 66.3801L43.7874 66.926Z" fill="white"/>
</svg>
